# xmcd CD database file
#
# Track frame offsets:
#	150
#	19554
#	41874
#	52956
#	140373
#	163422
#	183916
#	269261
#	292526
#
# Disc length: 4160 seconds
#
# Revision: 0
# Processed by: cddbd v1.4PL0 Copyright (c) Steve Scherf et al.
# Submitted via: CDex 1.40Beta6
#
DISCID=76103e09
DTITLE=Various Artist - Isle of Wight - Atlanta Pop Festival
DYEAR=1900
DGENRE=Blues
TTITLE0=Allman Brothers Band - Statesborough Blues
TTITLE1=Allman Brothers Band - Whipping Post
TTITLE2=Poco - Grand Junction
TTITLE3=Mountain - Stormy Monday
TTITLE4=Cactus - No need to worry
TTITLE5=Cactus - Parchman Farm
TTITLE6=Ten Years After - I can't keep from cryin' sometimes
TTITLE7=Procol Harum - Salty Dog
TTITLE8=Jimi Hindrix - Foxy Lady
EXTD=
EXTT0=
EXTT1=
EXTT2=
EXTT3=
EXTT4=
EXTT5=
EXTT6=
EXTT7=
EXTT8=
PLAYORDER=
